<svg enable-background="new 0 0 504.123 504.123" viewBox="0 0 504.123 504.123" xmlns="http://www.w3.org/2000/svg"><path d="m241.073 203.768c10.027 11.28 3.663 33.296-14.218 49.215-17.881 15.896-114.018 85.031-124.062 73.767-10.012-11.296 69.892-98.706 87.773-114.601 17.865-15.903 40.48-19.653 50.507-8.381z" fill="#d1b302"/><path d="m263.05 203.768c-10.027 11.28-3.663 33.296 14.218 49.215 17.881 15.896 114.018 85.031 124.062 73.767 10.012-11.296-69.892-98.706-87.773-114.601-17.865-15.903-40.48-19.653-50.507-8.381z" fill="#d1b302"/><path d="m348.538 358.951c0 19.511-15.817 124.676-35.336 124.676-19.495 0-35.304-105.173-35.304-124.676 0-19.495 15.817-35.32 35.304-35.32 19.519 0 35.336 15.833 35.336 35.32z" fill="#b79904"/><path d="m228.218 361.905c0 19.511-15.817 124.676-35.336 124.676-19.495 0-35.304-105.173-35.304-124.676 0-19.495 15.817-35.32 35.304-35.32 19.519 0 35.336 15.833 35.336 35.32z" fill="#b79904"/><path d="m351.705 315.242c0 126.322-44.599 84.259-99.643 84.259-55.028 0-99.643 42.063-99.643-84.259 0-72.231 44.631-130.788 99.643-130.788 55.028.008 99.643 58.565 99.643 130.788z" fill="#ce1111"/><path d="m351.705 315.242c0 126.322-44.599 84.259-99.643 84.259-55.028 0-99.643 42.063-99.643-84.259 0-72.231 44.631-130.788 99.643-130.788 55.028.008 99.643 58.565 99.643 130.788z" fill="#d1b302"/><path d="m252.062 184.462c-53.28 0-96.681 54.957-99.383 124.014 3.513 107.874 46.655 69.372 99.383 69.372 52.744 0 95.862 38.51 99.383-69.372-2.702-69.057-46.096-124.014-99.383-124.014z" fill="#eace00"/><path d="m232.629 487.219c0 14.935-17.802 16.904-39.739 16.904s-39.739-1.969-39.739-16.904 17.802-35.509 39.739-35.509 39.739 20.567 39.739 35.509z" fill="#232728"/><path d="m232.629 487.219c0 14.935-17.802 16.904-39.739 16.904s-39.739-1.969-39.739-16.904"/><path d="m350.988 487.219c0 14.935-17.802 16.904-39.739 16.904s-39.739-1.969-39.739-16.904 17.802-35.509 39.739-35.509 39.739 20.567 39.739 35.509z" fill="#232728"/><path d="m350.988 487.219c0 14.935-17.802 16.904-39.739 16.904s-39.739-1.969-39.739-16.904"/><path d="m173.088 235.725c21.835 11.059 49.191 16.691 78.99 16.691 29.783 0 57.139-5.632 78.966-16.691-18.211-31.106-46.773-51.263-78.982-51.263-32.201 0-60.771 20.141-78.974 51.263z" fill="#d1b302"/><path d="m298.016 207.415-45.954 99.785-45.954-99.785 45.954-45.954z" fill="#fff"/><path d="m280.513 189.913c-9.011-3.529-18.558-5.451-28.451-5.451s-19.448 1.914-28.459 5.451l-17.495 17.503 19.999 43.433c8.397 1 17.046 1.568 25.97 1.568 8.901 0 17.558-.567 25.939-1.568l20-43.433z" fill="#eae5df"/><path d="m381.015 124.258c0 63-57.738 94.681-128.937 94.681-71.215 0-128.969-31.673-128.969-94.681-.001-63.031 57.753-124.258 128.968-124.258 71.2 0 128.938 61.227 128.938 124.258z" fill="#f7ccb0"/><path d="m381.015 124.258c0 63-57.738 94.681-128.937 94.681-71.215 0-128.969-31.673-128.969-94.681 0-63.031 57.754-105.236 128.969-105.236 71.199.001 128.937 42.205 128.937 105.236z" fill="#f7bc8f"/><path d="m381.015 124.258c0 63-57.738 94.681-128.937 94.681-71.215 0-128.969-31.673-128.969-94.681" fill="#eaaf88"/><circle cx="190.748" cy="133.569" fill="#113e49" r="11.532"/><path d="m202.279 133.569c0 6.388-5.167 11.54-11.54 11.54-6.372 0-11.524-5.152-11.524-11.54"/><path d="m213.496 157.633c-.614 0-1.245-.228-1.725-.725-5.632-5.616-13.107-8.72-21.047-8.72h-.016c-7.94 0-15.399 3.111-21 8.72-.953.953-2.489.969-3.434 0-.953-.922-.985-2.458-.031-3.419 6.538-6.538 15.218-10.153 24.458-10.153h.016c9.263 0 17.951 3.584 24.505 10.138.937.937.937 2.505 0 3.434-.466.489-1.08.725-1.726.725z" fill="#ffd3c5"/><circle cx="313.423" cy="133.569" fill="#113e49" r="11.532"/><path d="m301.859 133.569c0 6.388 5.151 11.54 11.54 11.54 6.372 0 11.524-5.152 11.524-11.54"/><path d="m290.643 157.633c.599 0 1.229-.228 1.709-.725 5.632-5.616 13.107-8.72 21.047-8.72h.016c7.94 0 15.415 3.111 21.016 8.72.937.953 2.473.969 3.434 0 .953-.922.969-2.458.016-3.419-6.506-6.538-15.218-10.153-24.458-10.153h-.016c-9.248 0-17.936 3.584-24.505 10.138-.922.937-.922 2.505 0 3.434.48.489 1.095.725 1.741.725z" fill="#ffd3c5"/><g fill="#845824"><path d="m216.954 168.164h-56.8c-11.24 0-20.385-9.145-20.385-20.385v-30.744c0-11.24 9.145-20.385 20.385-20.385h56.8c11.24 0 20.385 9.145 20.385 20.385v30.744c.001 11.24-9.145 20.385-20.385 20.385zm-56.8-55.76c-2.552 0-4.632 2.08-4.632 4.632v30.744c0 2.552 2.079 4.632 4.632 4.632h56.8c2.552 0 4.632-2.08 4.632-4.632v-30.744c0-2.552-2.079-4.632-4.632-4.632z"/><path d="m145.676 140.28h-30.523c-4.356 0-7.877-3.521-7.877-7.877s3.521-7.877 7.877-7.877h30.523c4.356 0 7.877 3.521 7.877 7.877s-3.521 7.877-7.877 7.877z"/><path d="m343.969 168.157h-56.801c-11.24 0-20.385-9.145-20.385-20.385v-30.736c0-11.24 9.145-20.385 20.385-20.385h56.801c11.24 0 20.385 9.145 20.385 20.385v30.736c.001 11.239-9.144 20.385-20.385 20.385zm-56.8-55.753c-2.552 0-4.632 2.08-4.632 4.632v30.736c0 2.552 2.079 4.632 4.632 4.632h56.801c2.552 0 4.632-2.08 4.632-4.632v-30.736c0-2.552-2.079-4.632-4.632-4.632-.001 0-56.801 0-56.801 0z"/><path d="m388.97 140.28h-30.523c-4.356 0-7.877-3.521-7.877-7.877s3.521-7.877 7.877-7.877h30.523c4.356 0 7.877 3.521 7.877 7.877s-3.521 7.877-7.877 7.877z"/><path d="m274.66 138.004h-43.811c-4.356 0-7.877-3.521-7.877-7.877s3.521-7.877 7.877-7.877h43.811c4.356 0 7.877 3.521 7.877 7.877s-3.521 7.877-7.877 7.877z"/></g><path d="m257.308 381.369c0 2.891-2.339 5.246-5.246 5.246-2.891 0-5.246-2.355-5.246-5.246v-85.339c0-2.907 2.355-5.254 5.246-5.254 2.907 0 5.246 2.347 5.246 5.254z" fill="#fff"/><path d="m266.398 165.935h-28.688c-13.273 0-24.033 10.768-24.033 24.033v18.692c0 13.273 10.76 24.025 24.033 24.025h28.688c13.296 0 24.033-10.752 24.033-24.025v-18.692c-.001-13.257-10.737-24.033-24.033-24.033zm8.255 34.879c0 7.814-6.333 14.147-14.147 14.147h-16.896c-7.814 0-14.155-6.333-14.155-14.147v-10.996c0-7.806 6.341-14.155 14.155-14.155h16.896c7.814 0 14.147 6.349 14.147 14.155z" fill="#513715"/><path d="m128.323 330.831c0 11.973-9.689 21.662-21.662 21.662-11.973 0-21.662-9.689-21.662-21.662 0-11.973 9.689-21.662 21.662-21.662 11.973 0 21.662 9.689 21.662 21.662z" fill="#227fef"/><path d="m106.661 309.169c11.973 0 21.662 9.689 21.662 21.662 0 11.973-9.689 21.662-21.662 21.662" fill="#0a5bdd"/><path d="m375.784 330.831c0-11.981 9.689-21.677 21.662-21.677 11.973 0 21.677 9.689 21.677 21.677 0 11.957-9.704 21.662-21.677 21.662-11.965-.001-21.662-9.705-21.662-21.662z" fill="#227fef"/><path d="m397.446 352.492c-11.973 0-21.662-9.704-21.662-21.662 0-11.981 9.689-21.677 21.662-21.677" fill="#0a5bdd"/></svg>