<svg xmlns="http://www.w3.org/2000/svg" xmlns:xlink="http://www.w3.org/1999/xlink" version="1.1" id="Capa_1" x="0px" y="0px" viewBox="0 0 312.5 312.5" style="enable-background:new 0 0 312.5 312.5;" xml:space="preserve" width="48" height="48">
<g>
	<path d="M280,35.1c0-18.843-15.042-34.584-33.529-35.088c-9.402-0.236-18.294,3.208-25.027,9.759   c-5.768,5.612-9.308,12.862-10.208,20.729H190.25v39.35c-1.92,1.23-3.759,2.573-5.5,4.033V30.5h-25.489   C157.271,13.355,142.67,0,125,0S92.729,13.355,90.739,30.5H65.25V85h-5v11h5v120h-5v11h5v54.5h24.988   c-1.695,11.304-11.469,20-23.238,20c-12.958,0-23.5-10.542-23.5-23.5h-11c0,19.023,15.477,34.5,34.5,34.5   c17.842,0,32.564-13.614,34.323-31h20.927V227h5.5v54.5h25.427c1.76,17.386,16.481,31,34.323,31s32.564-13.614,34.323-31h25.427   V227h5v-11h-5v-56.85c14.717-9.427,24.5-25.912,24.5-44.65c0-4.28-0.523-8.438-1.485-12.426C276.556,93.885,280,83.825,280,73.42   V35.1z M201.25,41.5h35v22.982c-5.482-1.924-11.369-2.982-17.5-2.982s-12.018,1.059-17.5,2.982V41.5z M184.75,155.117   c1.741,1.46,3.58,2.803,5.5,4.033V216h-5.5V155.117z M173.75,142.454V216h-35V96h30.338c-2.154,5.763-3.338,11.995-3.338,18.5   C165.75,124.755,168.687,134.333,173.75,142.454z M173.75,85h-35V41.5h35V85z M125,11c11.594,0,21.247,8.442,23.152,19.5H127.75V85   h-5.5V30.5h-20.402C103.753,19.442,113.406,11,125,11z M76.25,41.5h35V85h-35V41.5z M76.25,96h35v120h-35V96z M111.25,270.5h-35   V227h35V270.5z M122.25,216V96h5.5v120H122.25z M138.75,227h35v43.5h-35V227z M187.5,301.5c-11.769,0-21.543-8.696-23.238-20   h20.488V227h5.5v54.5h20.488C209.043,292.804,199.269,301.5,187.5,301.5z M236.25,270.5h-35V227h35V270.5z M236.25,216h-35v-51.482   c5.482,1.924,11.369,2.982,17.5,2.982s12.018-1.059,17.5-2.982V216z M218.75,156.5c-23.159,0-42-18.841-42-42s18.841-42,42-42   s42,18.841,42,42S241.909,156.5,218.75,156.5z M247.25,69.85V30.5h-24.907c0.828-4.865,3.156-9.328,6.772-12.846   c4.586-4.461,10.65-6.806,17.056-6.646C258.759,11.351,269,22.158,269,35.1v38.32c0,5.536-1.271,10.944-3.659,15.833   C261.046,81.358,254.793,74.682,247.25,69.85z" style="fill: rgb(0, 0, 0);"></path>
	<polygon points="224.25,85.5 213.25,85.5 213.25,120.8 236.25,120.8 236.25,109.8 224.25,109.8  " style="fill: rgb(0, 0, 0);"></polygon>
</g>
</svg>