<svg xmlns="http://www.w3.org/2000/svg" height="48" viewBox="-72 0 480 480.06889" width="48"><path d="m216.035156 151.070312v-39.070312h16c4.417969 0 8-3.582031 8-8v-96c0-4.417969-3.582031-8-8-8h-192c-13.253906 0-24 10.746094-24 24v144c0 4.417969 3.582032 8 8 8h32c4.417969 0 8-3.582031 8-8v-120h32v56c0 4.417969 3.582032 8 8 8h16v39.070312c-79.9375 23.835938-130.285156 102.710938-118.242187 185.253907 12.042969 82.539062 82.828125 143.746093 166.242187 143.746093 83.414063 0 154.195313-61.207031 166.238282-143.746093 12.042968-82.542969-38.300782-161.417969-118.238282-185.253907zm-160-119.070312c-4.417968 0-8 3.582031-8 8v120h-16v-136c0-4.417969 3.582032-8 8-8h56v16zm56-16h112v80h-112zm24 96h64v35.144531c-21.128906-4.191406-42.875-4.191406-64 0zm32 48c80.75.132812 147.3125 63.363281 151.589844 144h-303.199219c4.277344-80.644531 70.851563-143.875 151.609375-144zm0 304c-80.75-.132812-147.316406-63.363281-151.59375-144h303.199219c-4.277344 80.644531-70.847656 143.875-151.605469 144zm0 0" style="fill: rgb(0, 0, 0);"></path></svg>