<svg xmlns="http://www.w3.org/2000/svg" xmlns:xlink="http://www.w3.org/1999/xlink" version="1.1" id="Capa_1" x="0px" y="0px" viewBox="0 0 512.001 512.001" style="enable-background:new 0 0 512.001 512.001;" xml:space="preserve" width="48" height="48">
<g>
	<g>
		<path d="M497.967,78.986l-14.7-25.599h-0.001c-0.004-0.008-0.008-0.016-0.012-0.023l-24.088-41.605    c-2.098-3.624-6.733-4.869-10.364-2.783l-7.144,4.103l-5.319-9.261c-2.091-3.641-6.738-4.896-10.377-2.806    c-3.64,2.091-4.897,6.737-2.806,10.377l5.319,9.261l-99.561,57.177c-3.64,2.091-4.897,6.737-2.806,10.377    c2.091,3.641,6.738,4.896,10.377,2.806l113.32-65.078l16.471,28.449l-71.292,40.941c-19.437,11.162-26.248,35.971-15.306,55.474    L70.139,323.834l-6.293-13.667c-6.242-13.555-7.18-28.849-2.642-43.066c4.538-14.216,14.164-26.139,27.105-33.571l220.269-126.496    c3.64-2.091,4.897-6.737,2.806-10.377c-2.091-3.641-6.737-4.897-10.377-2.806L80.739,220.346c-1.853,1.064-3.643,2.21-5.385,3.416    c-2.833-1.525-5.846-2.723-9.008-3.579c-10.899-2.948-22.294-1.478-32.085,4.142c-9.791,5.62-16.806,14.718-19.755,25.619    c-2.947,10.896-1.473,22.288,4.151,32.078c5.624,9.79,14.724,16.805,25.623,19.753c0.267,0.072,0.538,0.135,0.808,0.202    c1.144,4.965,2.782,9.842,4.949,14.547l9.72,21.11c1.692,3.674,5.962,5.378,9.719,3.882c12.701-5.064,26.558-4.753,39.019,0.876    c12.461,5.629,21.856,15.821,26.452,28.699l41.426,116.065c3.737,10.468,11.86,18.678,22.288,22.524    c4.209,1.553,8.594,2.321,12.961,2.321c6.453,0,12.866-1.677,18.615-4.978l65.613-37.681c3.159-1.814,4.587-5.615,3.404-9.059    l-17.141-49.936c-1.363-3.971-5.685-6.084-9.657-4.722c-3.97,1.363-6.084,5.687-4.722,9.657l15.104,44.002l-60.173,34.556    c-5.722,3.286-12.554,3.862-18.745,1.578c-6.19-2.283-11.013-7.157-13.232-13.371l-41.426-116.065    c-5.997-16.802-18.253-30.099-34.511-37.444c-4.456-2.013-9.05-3.501-13.712-4.469l131.425-72.939    c-0.157,0.443-0.323,0.882-0.469,1.329c-4.415,13.522-3.119,27.459,3.648,39.243c5.346,9.311,14.327,15.741,25.289,18.108    c0.261,0.057,0.525,0.096,0.787,0.148c-12.803,15.972-17.149,37.848-10.187,58.127l7.246,21.11    c1.082,3.153,4.032,5.135,7.189,5.135c0.819,0,1.651-0.133,2.469-0.414c3.97-1.363,6.084-5.687,4.722-9.657l-7.246-21.11    c-7.133-20.777,1.518-43.798,20.567-54.738l38.026-21.837c21.944-12.603,33.205-37.71,28.021-62.479l-3.639-17.39    c-2.288-10.937,2.617-22.013,12.209-27.691l32.74-18.818c1.748-1.004,3.026-2.661,3.552-4.607s0.257-4.021-0.747-5.77    l-1.675-2.916l100.192-57.538C498.801,87.272,500.057,82.627,497.967,78.986z M46.721,262.477    c-2.367,7.418-3.53,15.068-3.537,22.699c-4.724-2.354-8.654-6.043-11.344-10.724c-3.601-6.268-4.544-13.562-2.658-20.539    c1.887-6.979,6.379-12.804,12.647-16.402c6.268-3.598,13.566-4.539,20.547-2.652c0.079,0.021,0.154,0.053,0.233,0.074    C55.465,242.797,50.016,252.15,46.721,262.477z M285.203,291.418c-6.593,3.786-14.07,5.041-21.061,3.531    c-6.699-1.446-12.138-5.287-15.313-10.818c-4.596-8.003-5.441-17.576-2.38-26.954c2.648-8.114,7.933-15.241,15.092-20.495    c0.763,20.284,11.99,40.861,28.495,52.155C290.035,288.837,285.675,291.146,285.203,291.418z M316.936,273.388l-11.517,6.614    c-18.521-7.705-31.81-32.608-28.063-52.763l35.635-20.522l0.043,0.076c4.372-2.473,10.538-5.047,15.082-3.273    c4.258,1.662,5.926,6.707,5.942,6.758l0.045-0.013l3.546,16.943C341.479,245.515,333.156,264.074,316.936,273.388z M389.71,132.39    c-0.574-9.444,4.097-18.864,12.844-23.886l71.315-40.955l7.13,12.416L389.71,132.39z" style="fill: rgb(0, 0, 0);"></path>
	</g>
</g>
<g>
	<g>
		<path d="M237.34,375.409c-2.091-3.64-6.738-4.897-10.377-2.806l-41.976,24.105c-3.64,2.091-4.897,6.737-2.806,10.377    c1.406,2.448,3.966,3.818,6.599,3.818c1.284,0,2.585-0.325,3.778-1.011l41.976-24.105    C238.174,383.695,239.43,379.049,237.34,375.409z" style="fill: rgb(0, 0, 0);"></path>
	</g>
</g>
<g>
	<g>
		<path d="M259.597,440.703c-2.091-3.641-6.738-4.896-10.377-2.806l-41.975,24.105c-3.64,2.091-4.897,6.737-2.806,10.377    c1.406,2.448,3.966,3.818,6.599,3.818c1.284,0,2.585-0.326,3.778-1.011l41.975-24.105    C260.431,448.989,261.688,444.343,259.597,440.703z" style="fill: rgb(0, 0, 0);"></path>
	</g>
</g>
<g>
	<g>
		<path d="M248.193,408.881c-2.091-3.641-6.737-4.895-10.377-2.806L198.4,428.709c-3.64,2.091-4.897,6.737-2.806,10.377    c1.406,2.448,3.966,3.818,6.599,3.818c1.284,0,2.585-0.326,3.778-1.011l39.416-22.635    C249.027,417.167,250.284,412.521,248.193,408.881z" style="fill: rgb(0, 0, 0);"></path>
	</g>
</g>
<g>
	<g>
		<path d="M207.102,198.355c-2.091-3.64-6.738-4.897-10.377-2.806l-25.615,14.71c-3.64,2.091-4.897,6.737-2.806,10.377    c1.406,2.448,3.966,3.818,6.599,3.818c1.284,0,2.585-0.326,3.778-1.011l25.615-14.71    C207.936,206.641,209.192,201.995,207.102,198.355z" style="fill: rgb(0, 0, 0);"></path>
	</g>
</g>

</svg>