<svg xmlns="http://www.w3.org/2000/svg" viewBox="0 0 34 60" width="48"><g id="Page-1" fill="none" fill-rule="evenodd"><g id="035---Noose" fill="rgb(0,0,0)" fill-rule="nonzero"><path id="Shape" d="m33.107 17.126c.5752473-.5571583.8978456-1.3251808.893-2.126 0-1.6568542-1.3431458-3-3-3h-7.783c-.033-.035-.057-.075-.091-.108-.5579289-.5739985-1.3255361-.8960613-2.126-.892-.8484938.0026614-1.6557601.3662948-2.22 1h-.78v-9c0-1.65685425-1.3431458-3-3-3s-3 1.34314575-3 3v9h-4c-1.65344336.0082058-2.99179417 1.3465566-3 3 .00260366.740399.28064791 1.4533329.78 2-1.04004907 1.1305142-1.04004907 2.8694858 0 4-1.04004907 1.1305142-1.04004907 2.8694858 0 4-.78582144.8598765-.99858165 2.0987966-.54465582 3.1715754.45392583 1.0727787 1.49131103 1.7827237 2.65565582 1.8174246-.2526322 1.2118282-.93623951 2.2908902-1.924 3.037-5.05680997 3.8156737-7.17137646 10.3967898-5.28353904 16.4438357 1.88783742 6.0470458 7.37103731 10.2562024 13.70053904 10.5171643.208.0093333.4156667.0136667.623.013 6.4564561 0 12.1885388-4.1314514 14.2302495-10.2565835s-.0650846-12.8695428-5.2302495-16.7434165c-.980132-.7389451-1.6559631-1.8110267-1.9-3.014 1.1634769-.0349559 2.2001047-.7441429 2.6542914-1.8158774.4541868-1.0717345.2427866-2.309819-.5412914-3.1701226 1.0400491-1.1305142 1.0400491-2.8694858 0-4 .7523805-.8054814.9847045-1.9671016.6-3h6.18c.7916941.0059317 1.5519543-.3094302 2.107-.874zm-2.107-3.126c.5522847 0 1 .4477153 1 1 .0008733.2694422-.1099083.5272084-.306.712-.1823963.1865985-.4330776.2906276-.694.288h-7v-2zm-9 6h-14c-.55228475 0-1-.4477153-1-1s.44771525-1 1-1h14c.5522847 0 1 .4477153 1 1s-.4477153 1-1 1zm1 3c0 .5522847-.4477153 1-1 1h-14c-.55228475 0-1-.4477153-1-1s.44771525-1 1-1h14c.5522847 0 1 .4477153 1 1zm-2-10c.2694422-.0008733.5272084.1099083.712.306.1865985.1823963.2906276.4330776.288.694v2h-2v-2c0-.5522847.4477153-1 1-1zm-7-10c0-.55228475.4477153-1 1-1s1 .44771525 1 1v9h-2zm-6.694 11.288c.18239634-.1865985.43307757-.2906276.694-.288h10v2h-10c-.55228475 0-1-.4477153-1-1-.00087326-.2694422.10990828-.5272084.306-.712zm15.494 20.312c4.5533581 3.4177421 6.3530452 9.4006803 4.4408435 14.7632837-1.9122018 5.3626034-7.091335 8.8570278-12.7798435 8.6227163-5.48515062-.2269513-10.23648862-3.8750938-11.87215823-9.1156061-1.63566962-5.2405123.19694819-10.9436403 4.57915823-14.2503939 1.48507114-1.1215605 2.47215107-2.7798548 2.75-4.62h2.022c-.2899836 2.4728721-1.5778483 4.7198618-3.565 6.22-3.70749783 2.7977137-5.25823043 7.6226197-3.87498114 12.0565078 1.3832493 4.4338881 5.40236002 7.5211585 10.04298114 7.7144922.156.006.311.009.466.009 4.7330787-.0038704 8.9330494-3.0349547 10.4279435-7.5257608 1.4948941-4.4908062-.0504777-9.4343932-3.8369435-12.2742392-1.980146-1.4940464-3.2602397-3.7353851-3.541-6.2h2.022c.2666891 1.8310405 1.2434405 3.483507 2.719 4.6zm-6.741-4.6c.2865386 3.0945204 1.8621386 5.9255916 4.341 7.8 3.1527548 2.3665953 4.3984116 6.5095431 3.0735653 10.2224152-1.3248463 3.712872-4.9118098 6.1314191-8.8505653 5.9675848-3.794471-.1612373-7.0793442-2.6870451-8.20990175-6.3127654-1.13055754-3.6257202.13655515-7.57091 3.16690175-9.8602346 2.4836698-1.8803146 4.0652-4.7158241 4.36-7.817zm5.941-2h-14c-.55228475 0-1-.4477153-1-1s.44771525-1 1-1h14c.5522847 0 1 .4477153 1 1s-.4477153 1-1 1z" style="fill: rgb(0, 0, 0);"></path></g></g></svg>