<svg xmlns="http://www.w3.org/2000/svg" xmlns:xlink="http://www.w3.org/1999/xlink" version="1.1" id="Capa_1" x="0px" y="0px" viewBox="0 0 391.064 391.064" style="enable-background:new 0 0 391.064 391.064;" xml:space="preserve" width="48" height="48">
<g>
	<path d="M213.699,209.214v-42.11h-11.228v-21.711c0-3.037-2.462-5.5-5.5-5.5s-5.5,2.463-5.5,5.5v21.711h-10.677v42.11   c0,8.751-3.265,17.115-9.193,23.552c-7.805,8.474-12.103,19.484-12.103,31.004v112.522c0,8.146,6.626,14.772,14.772,14.772h45.953   c8.146,0,14.772-6.627,14.772-14.772V263.77c0-11.52-4.298-22.53-12.103-31.005C216.964,226.329,213.699,217.965,213.699,209.214z    M220.223,380.064H174.27c-2.08,0-3.772-1.692-3.772-3.772v-51.225h53.497v51.225C223.995,378.372,222.303,380.064,220.223,380.064   z M223.995,314.067h-53.497V263.77c0-8.751,3.265-17.115,9.193-23.552c7.804-8.474,12.103-19.483,12.103-31.004v-31.11h10.905   v31.11c0,11.521,4.298,22.53,12.103,31.003c5.928,6.438,9.193,14.802,9.193,23.553V314.067z" style="fill: rgb(0, 0, 0);"></path>
	<path d="M224.032,31.307c-17.325-17.072-35.297-26.649-36.054-27.049L179.911,0v9.122c0,32.737-12.197,44.15-23.992,55.188   c-10.347,9.682-21.045,19.693-20.54,41.921c0.454,19.989,12.752,35.715,33.742,43.146c1.212,0.43,2.464,0.646,3.721,0.646   c3.81,0,7.426-2.064,9.438-5.39c2.029-3.353,2.151-7.434,0.328-10.916c-8.046-15.37-5.765-28.904,6.763-40.332   c2.57,9.278,7.775,15.438,12.164,20.632c4.682,5.541,8.065,9.545,8.065,15.84c0,1.896-0.114,3.701-0.34,5.362   c-0.43,3.161,0.523,6.347,2.614,8.741c2.128,2.438,5.19,3.836,8.4,3.836c1.649,0,3.251-0.364,4.762-1.081   c17.291-8.208,28.002-22.751,30.162-40.95C258.239,80.141,247.462,54.394,224.032,31.307z M244.275,104.468   c-2.176,18.339-14.228,27.692-23.999,32.328c-0.036-0.003-0.108-0.052-0.117-0.097c0.292-2.15,0.44-4.452,0.44-6.843   c0-10.32-5.421-16.735-10.664-22.939c-5.428-6.423-10.554-12.489-11.115-23.844l-0.481-9.742l-8.087,5.454   c-31.393,21.171-24.371,46.7-17.359,60.096c-0.005,0.035-0.047,0.096-0.086,0.131l-0.016-0.005   c-16.443-5.821-26.071-17.859-26.416-33.026c-0.394-17.308,7.308-24.515,17.059-33.639c11.145-10.43,24.771-23.182,27.123-53.69   C208.158,30.089,249.347,61.717,244.275,104.468z" style="fill: rgb(0, 0, 0);"></path>
	<path d="M211.769,242.982c-2.37-1.9-5.832-1.521-7.731,0.851c-1.9,2.37-1.52,5.831,0.851,7.731   c3.181,2.551,4.922,6.346,4.777,10.413c-0.108,3.035,2.264,5.584,5.3,5.692c0.067,0.003,0.134,0.004,0.2,0.004   c2.947,0,5.387-2.335,5.493-5.304C220.925,254.907,217.602,247.659,211.769,242.982z" style="fill: rgb(0, 0, 0);"></path>
</g>
</svg>