<svg xmlns="http://www.w3.org/2000/svg" id="Capa_1" enable-background="new 0 0 511.997 511.997" height="48" viewBox="0 0 511.997 511.997" width="48"><g><path d="m469.769 169.508 15.91-15.91c35.091-35.092 35.091-92.188 0-127.28-35.093-35.091-92.189-35.089-127.28 0l-15.91 15.91-10.606-10.605c-4.249-4.25-9.899-6.591-15.91-6.591s-11.661 2.341-15.91 6.59l-289.079 289.079c-7.083 7.083-10.984 16.5-10.984 26.516s3.901 19.434 10.984 26.517l31.82 31.819c7.083 7.083 16.5 10.984 26.516 10.984s19.434-3.901 26.517-10.983l289.08-289.08c8.771-8.772 8.771-23.047 0-31.819 0-.001-10.606-10.607-10.606-10.607l15.91-15.91c5.276-5.276 11.829-9.182 18.95-11.292 3.972-1.177 6.237-5.35 5.06-9.321s-5.346-6.24-9.321-5.06c-9.51 2.817-18.257 8.027-25.296 15.065l-15.91 15.91-10.606-10.606 15.91-15.91c29.243-29.245 76.824-29.243 106.065 0 29.243 29.242 29.243 76.823 0 106.065l-15.91 15.91-10.606-10.606 15.91-15.91c23.393-23.394 23.393-61.459-.001-84.854-7.039-7.038-15.786-12.248-25.295-15.065-3.969-1.176-8.145 1.087-9.321 5.06-1.178 3.972 1.088 8.145 5.06 9.321 7.12 2.11 13.673 6.015 18.95 11.291 17.546 17.547 17.546 46.095 0 63.64l-15.91 15.91-10.606-10.606c-8.771-8.771-23.047-8.771-31.82 0l-289.079 289.08c-14.621 14.621-14.621 38.411 0 53.033l31.82 31.819c7.083 7.082 16.5 10.983 26.517 10.983s19.434-3.901 26.517-10.983l289.078-289.079c4.25-4.249 6.591-9.899 6.591-15.91 0-6.01-2.341-11.66-6.59-15.91zm-384.539 225.439c-4.25 4.25-9.9 6.591-15.91 6.591s-11.66-2.341-15.91-6.591l-31.82-31.82c-8.772-8.772-8.772-23.046 0-31.818l220.136-220.136 63.639 63.639zm289.079-289.079-58.336 58.336-63.639-63.639 58.337-58.337c1.416-1.416 3.3-2.196 5.303-2.196s3.887.78 5.303 2.197l53.033 53.031c2.922 2.925 2.922 7.684-.001 10.608zm-193.62 384.538c-8.773 8.773-23.047 8.773-31.82 0l-31.82-31.818c-8.772-8.773-8.772-23.048 0-31.82l220.136-220.136 63.639 63.639zm289.079-289.079-58.336 58.336-63.639-63.639 58.335-58.336c1.463-1.462 3.384-2.193 5.305-2.193 1.92 0 3.841.731 5.303 2.193l53.032 53.033c1.417 1.416 2.197 3.3 2.197 5.303s-.78 3.887-2.197 5.303z" style="fill: rgb(0, 0, 0);"></path></g></svg>