<svg xmlns="http://www.w3.org/2000/svg" xmlns:xlink="http://www.w3.org/1999/xlink" version="1.1" id="Capa_1" x="0px" y="0px" viewBox="0 0 432 432" style="enable-background:new 0 0 432 432;" xml:space="preserve" width="48" height="48">
<g>
	<g>
		<path d="M324.897,135.199L280,112.05V64h32V48h-32V0H152v48h-32v16h32v48.05l-44.897,23.149C86.354,145.778,72,167.106,72,192v208    c0,17.68,14.32,32,32,32h224c17.68,0,32-14.32,32-32V192C360,167.106,345.649,145.778,324.897,135.199z M168,16h96v32h-96V16z     M344,400c0,8.824-7.178,16-16,16H104c-8.822,0-16-7.176-16-16V224h256V400z M344,208H88v-16    c0-17.953,10.103-34.254,26.435-42.578c44.99-23.199,37.554-19.367,53.565-27.621c0-34.301,0-23.519,0-57.801    c41.893,0,54.11,0,96,0c0,34.242,0,23.519,0,57.801c5.885,3.035-0.69-0.355,53.631,27.656C333.897,157.746,344,174.047,344,192    V208z" style="fill: rgb(0, 0, 0);"></path>
	</g>
</g>
<g>
	<g>
		<circle cx="196" cy="324" r="12" style="fill: rgb(0, 0, 0);"></circle>
	</g>
</g>
<g>
	<g>
		<circle cx="236" cy="324" r="12" style="fill: rgb(0, 0, 0);"></circle>
	</g>
</g>
<g>
	<g>
		<path d="M278.002,369.027c-0.355,0.355-0.5,0.82-0.801,1.207l-16.817-16.817c11.195-7.602,11.992-11.386,11.725-28.465    l-0.094-10.281c0-10.922-4.205-20.797-10.846-28.871l16.031-16.031c0.301,0.386,0.446,0.848,0.801,1.203    c4.687,4.687,12.285,4.687,16.97,0s4.686-12.285,0-16.969c-2.658-2.66-6.229-3.637-9.695-3.282    c0.358-3.469-0.623-7.039-3.279-9.695c-4.687-4.687-12.285-4.687-16.97,0s-4.686,12.285,0,16.973    c0.355,0.355,0.818,0.496,1.205,0.801l-16.614,16.614C239.594,268.324,227.565,264,216,264c-11.562,0-23.592,4.324-33.615,11.418    l-16.617-16.617c0.386-0.305,0.85-0.446,1.205-0.801c4.686-4.687,4.686-12.285,0-16.973c-4.686-4.688-12.283-4.687-16.97,0    c-2.656,2.656-3.637,6.226-3.279,9.695c-3.466-0.355-7.037,0.621-9.695,3.282c-4.686,4.683-4.686,12.282,0,16.969    c4.686,4.687,12.283,4.687,16.97,0c0.355-0.355,0.5-0.817,0.801-1.203l16.037,16.035C164.199,293.879,160,303.754,160,314.672    l-0.062,9.484c-0.198,17.519,0.254,21.614,11.658,29.278l-16.797,16.801c-0.301-0.386-0.446-0.851-0.801-1.207    c-4.687-4.687-12.285-4.687-16.97,0s-4.686,12.285,0,16.973c2.658,2.656,6.229,3.633,9.695,3.278    c-0.358,3.469,0.623,7.039,3.279,9.695c4.687,4.687,12.285,4.687,16.97,0c4.686-4.687,4.686-12.285,0-16.969    c-0.355-0.355-0.818-0.5-1.205-0.801L176,370.969V376h80v-5.031l10.233,10.234c-0.386,0.301-0.85,0.446-1.205,0.801    c-4.686,4.683-4.686,12.282,0,16.969c4.686,4.687,12.283,4.687,16.97,0c2.656-2.656,3.637-6.226,3.279-9.695    c3.466,0.355,7.037-0.621,9.695-3.278c4.686-4.687,4.686-12.285,0-16.973C290.287,364.339,282.69,364.34,278.002,369.027z     M248.969,341.82L240,347.718V360h-16v-16h-16v16h-16v-12.282l-9.516-6.234c-6.695-4.258-6.695-4.258-6.546-17.156l0.062-9.656    C176,295.149,197.5,280,216,280c18.508,0,40.016,15.149,40.016,34.672c0,4.117,0.054,7.586,0.102,10.523    C256.298,337.102,256.298,337.102,248.969,341.82z" style="fill: rgb(0, 0, 0);"></path>
	</g>
</g>
</svg>